<svg id="Layer_1" enable-background="new 0 0 512 512" height="512" viewBox="0 0 512 512" width="512" xmlns="http://www.w3.org/2000/svg"><g><path d="m419.4 33.3c-17.5 5.1-34.4 15.3-48.8 29.4-21.2 20.8-58 61.8-65.8 102.5-.9 4.4-3.8 8.2-7.9 10.1s-8.8 1.8-12.8-.4c-17.6-9.7-38.7-9.7-56.4 0-4 2.2-8.7 2.3-12.8.4s-7-5.7-7.9-10.1c-7.8-40.7-44.6-81.7-65.8-102.5-14.3-14.1-31.2-24.3-48.6-29.4-8.4-2.5-23.6-5.7-29.8.9-9.4 9.7-4.8 40.1 1.2 57.7 22.3 57.3 36.1 198.6 36.7 204.6.2 1.9 0 3.8-.6 5.7-.2.5-16.6 53.9 7.7 93.1 10.9 17.6 28.9 29.9 53.4 37-.5-9.3.5-19 2.5-28.7 4.7-23.8 15.2-47.5 23.8-64.1 3.4-6.5 3.3-13.8-.2-19.9-14.5-25.2-55.5-21-55.9-21-.7.1-1.4.1-2.1 0-6.9-.2-12.8-5.3-13.6-12.4-.9-7.2 3.9-13.7 10.8-15.3.5-.1 1-.3 1.6-.3 1.9-.2 37.3-4.1 64.1 14 7.5 5.1 14.4 11.8 19.7 20.9 8.3 14.4 8.6 31.9.8 46.9-17.9 34.7-31.8 78.5-17.1 97.5.5.6 18.8 25.4 46.5 30.8v-39c-20.9-4.4-35.8-18.5-35.8-35.6 0-20.8 21.9-37.1 49.9-37.1s49.9 16.3 49.9 37.1c0 17.1-14.9 31.2-35.8 35.6v39c27.9-5.4 45.9-30.1 46.1-30.4 15-19.5 1.1-63.3-16.7-97.9-7.8-15-7.5-32.5.8-46.9 5.2-9.1 12.2-15.9 19.7-20.9 26.8-18.1 62.2-14.2 64.1-14 .6.1 1.1.2 1.6.4 6.8 1.7 11.6 8.2 10.7 15.3-.8 7-6.7 12.1-13.5 12.4-.7 0-1.5 0-2.2 0-.4 0-41.4-4.4-55.9 21-3.5 6.1-3.6 13.3-.2 19.9 8.6 16.6 19 40.3 23.7 64.1 1.9 9.7 2.9 19.4 2.4 28.7 24.6-7.1 42.7-19.5 53.7-37.2 24.4-39.5 7.8-92.5 7.7-93-.6-1.8-.8-3.8-.6-5.7.6-6 14.4-147.4 36.9-205.1 5.8-17 10.3-47.6 1-57.2-6.6-6.6-21.7-3.4-30.2-.9z" fill="#fff"/><path d="m256 509.9c1.2.1 0 0 0 0z" fill="#194f82"/><path d="m126.9 310.8c-3.5 11.4-9.5 46.7 5 69.8 6.4 10.2 17.1 17.8 31.8 23 4.7-23.8 15.2-47.5 23.8-64.1 3.4-6.5 3.3-13.8-.2-19.9-14.5-25.2-55.5-21-55.9-21-.7.1-1.4.1-2.1 0l.4 3.8z" fill="#56ace0"/><path d="m380.1 380.6c14.5-23.1 8.4-58.4 4.9-70.1l-2.5-8.1.3-3.8c-.7 0-1.5 0-2.2 0-.4 0-41.4-4.4-55.9 21-3.5 6.1-3.6 13.3-.2 19.9 8.6 16.6 19 40.3 23.7 64.1 14.8-5.2 25.5-12.8 31.9-23z" fill="#56ace0"/><path d="m426 60.8c-12.6 4-24.8 11.6-35.6 22.1-32.1 31.5-53.2 63.4-57.9 87.6l-11 57.2-51-28.1c-4.6-2.5-9.6-3.8-14.6-3.8s-10 1.3-14.6 3.8l-51 28.1-11-57.2c-4.6-24.2-25.7-56.2-57.9-87.6-10.7-10.5-23-18.1-35.6-22.1.7 6.7 2.4 14.8 4.5 21.4 18.5 48.5 30.8 144 35.8 188.8.5-.1 1-.3 1.6-.3 1.9-.2 37.3-4.1 64.1 14h127.9c26.8-18.1 62.2-14.2 64.1-14 .6.1 1.1.2 1.6.4 5-44.8 17.4-140.4 35.8-188.8 2.4-6.7 4.1-14.8 4.8-21.5z" fill="#56ace0"/><path d="m211.7 305.5c8.3 14.4 8.6 31.9.8 46.9-17.9 34.7-31.8 78.5-17.1 97.5.5.6 18.8 25.4 46.5 30.8v-39c-20.9-4.4-35.8-18.5-35.8-35.6 0-20.8 21.9-37.1 49.9-37.1s49.9 16.3 49.9 37.1c0 17.1-14.9 31.2-35.8 35.6v39c27.9-5.4 45.9-30.1 46.1-30.4 15-19.5 1.1-63.3-16.7-97.9-7.8-15-7.5-32.5.8-46.9 5.2-9.1 12.2-15.9 19.7-20.9h-128c7.5 5.1 14.4 11.8 19.7 20.9z" fill="#ffc10d"/><path d="m277.6 406.1c0-2.2-7.7-8.9-21.7-8.9s-21.7 6.6-21.7 8.9c0 2.2 7.7 8.9 21.7 8.9s21.7-6.7 21.7-8.9z" fill="#fff"/><g fill="#194f82"><path d="m469.6 14.6c-12.6-13.2-32.2-16.1-58.1-8.4-21.9 6.4-42.8 19-60.6 36.4-25.3 24.8-56.3 61.2-69.4 100.7-16.6-5.2-34.4-5.2-51 0-13.1-39.5-44.1-75.9-69.4-100.7-17.7-17.3-38.6-29.9-60.5-36.4-26-7.6-45.5-4.8-58.2 8.4-24.8 25.9-7.2 80.3-4.9 87 19.5 50 32.8 175.1 34.8 194.9-3.7 13.5-16.3 68.6 11.4 113.4 17.4 28.1 46.7 46 87 53.6.7 1.1 1.3 2.2 2.1 3.2 1.3 1.9 32.8 45.3 83.2 43.2 52.6.1 81.9-41.3 82.9-42.7.9-1.1 1.6-2.4 2.3-3.6 40.4-7.6 69.7-25.5 87.1-53.6 27.7-44.9 15.1-100 11.4-113.5 2-19.9 15.3-144.9 35-195.5 2.1-6.1 19.8-60.4-5.1-86.4zm-119 417.7c.5-9.3-.5-19-2.4-28.7-4.7-23.8-15.1-47.5-23.7-64.1-3.4-6.5-3.3-13.8.2-19.9 14.6-25.4 55.6-21 55.9-21 .7.1 1.5.1 2.2 0 6.8-.2 12.7-5.4 13.5-12.4.9-7.2-3.8-13.7-10.7-15.3-.5-.1-1.1-.3-1.6-.4-1.9-.2-37.3-4.1-64.1 14-7.5 5.1-14.4 11.8-19.7 20.9-8.3 14.4-8.6 31.9-.8 46.9 17.9 34.7 31.8 78.5 16.7 97.9-.2.3-18.2 25-46.1 30.4v-39c20.9-4.4 35.8-18.5 35.8-35.6 0-20.8-21.9-37.1-49.9-37.1s-49.9 16.3-49.9 37.1c0 17.1 14.9 31.2 35.8 35.6v39c-27.7-5.4-46-30.2-46.5-30.8-14.7-19-.8-62.8 17.1-97.5 7.8-15 7.5-32.5-.8-46.9-5.2-9.1-12.2-15.9-19.7-20.9-26.8-18.1-62.2-14.2-64.1-14-.5.1-1 .2-1.6.3-6.9 1.6-11.6 8.2-10.8 15.3.8 7 6.8 12.2 13.6 12.4h2.1c.4-.1 41.5-4.2 55.9 21 3.5 6.1 3.6 13.3.2 19.9-8.6 16.6-19 40.3-23.8 64.1-1.9 9.7-3 19.4-2.5 28.7-24.4-7.1-42.5-19.4-53.4-37-24.3-39.2-7.9-92.6-7.7-93.1.6-1.8.8-3.8.6-5.7-.6-6-14.4-147.4-36.7-204.6-6-17.5-10.6-48-1.2-57.8 6.3-6.5 21.4-3.3 29.8-.9 17.5 5.1 34.4 15.3 48.8 29.4 21.2 20.8 58 61.8 65.8 102.5.9 4.4 3.8 8.2 7.9 10.1s8.8 1.8 12.8-.4c17.6-9.7 38.7-9.7 56.4 0 4 2.2 8.7 2.3 12.8.4s7-5.7 7.9-10.1c7.8-40.7 44.6-81.7 65.8-102.5 14.4-14.1 31.3-24.3 48.8-29.4 8.5-2.5 23.6-5.7 29.8.9 9.3 9.7 4.7 40.2-1 57.2-22.5 57.8-36.3 199.2-36.9 205.1-.2 1.9 0 3.8.6 5.7.2.5 16.7 53.5-7.7 93-10.7 17.8-28.9 30.2-53.5 37.3zm-116.3-26.2c0-2.2 7.7-8.9 21.7-8.9s21.7 6.6 21.7 8.9c0 2.2-7.7 8.9-21.7 8.9s-21.7-6.7-21.7-8.9z"/><path d="m383.8 206.7c-26.8-9.1-31.8-33.9-32-35.1-1.3-7.6-8.6-12.7-16.3-11.4s-12.9 8.6-11.6 16.3c.3 1.7 7.7 42.4 50.8 57 1.5.5 12.2 3.8 17.9-8.8 3.2-7.2-1.4-15.5-8.8-18z"/><path d="m166.4 160.2c-7.7-1.3-14.9 3.8-16.3 11.4-.2 1.3-5.3 26-32 35.1-7.4 2.5-12 10.8-8.8 17.9 5.7 12.6 16.4 9.3 17.9 8.8 43.1-14.6 50.5-55.3 50.8-57 1.2-7.7-3.9-14.9-11.6-16.2z"/></g></g></svg>