<svg id="Capa_1" enable-background="new 0 0 512 512" height="512" viewBox="0 0 512 512" width="512" xmlns="http://www.w3.org/2000/svg"><g><path d="m248.464 86.97c.259-1.81-.281-3.643-1.479-5.025l-.083-.095c-2.531-2.919-1.868-7.407 1.401-9.468 1.565-.987 2.618-2.611 2.88-4.443l3.027-21.191c.898-6.289-3.982-11.916-10.335-11.916h-224.739c-6.353 0-11.234 5.627-10.335 11.916l3.027 21.191c.262 1.832 1.315 3.456 2.88 4.443 3.268 2.061 3.932 6.549 1.401 9.468l-.083.095c-1.198 1.381-1.738 3.215-1.479 5.025l2.425 16.977 114.534 13.823 114.534-13.823z" fill="#0ab69f"/><path d="m243.875 34.832h-30.875l-2.186 15.302c-.182 1.275-1.274 2.222-2.562 2.222-3.761 0-5.779 4.422-3.314 7.263l1.995 2.299c1.199 1.381 1.739 3.215 1.48 5.026l-2.425 16.977-3.299 23.093c-.104.731-.192 1.463-.264 2.197l43.616-5.264 2.425-16.977c.259-1.81-.281-3.643-1.479-5.025l-.083-.095c-2.532-2.919-1.868-7.407 1.401-9.468 1.565-.987 2.618-2.611 2.88-4.443l3.027-21.191c.897-6.289-3.983-11.916-10.337-11.916z" fill="#01998d"/><path d="m255.493 466.667-13.219-330.478c-.122-3.057.034-6.12.467-9.149l3.299-23.093h-229.068l3.299 23.093c.433 3.029.589 6.091.467 9.149l-6.111 152.764c10.695-3.445 130.044 167.953 107.086 188.216h123.69c5.735-.001 10.319-4.772 10.09-10.502z" fill="#fdb441"/><path d="m159.152 394.23c0-61.074-49.51-110.584-110.584-110.584-11.84 0-23.246 1.861-33.94 5.306l-7.109 177.715c-.229 5.731 4.355 10.501 10.09 10.501h104.105c22.957-20.263 37.438-49.909 37.438-82.938z" fill="#0ab69f"/><path d="m255.493 466.667-13.219-330.479c-.122-3.057.034-6.12.467-9.149l3.299-23.093h-42.913l-.438 3.067c-.433 3.029-.589 6.091-.467 9.149l8.716 217.894c2.285 57.127-36.237 106.115-89.162 119.485 3.595 11.487 4.058 19.99-.062 23.626h123.69c5.734.001 10.318-4.77 10.089-10.5z" fill="#fea713"/><path d="m92.677 457.142h-84.777l-.381 9.525c-.229 5.731 4.355 10.501 10.09 10.501h104.105c10.592-9.349 19.38-20.695 25.773-33.45-16.367 8.568-35.002 13.424-54.81 13.424z" fill="#01998d"/><path d="m494.087 315.615-99.944-45.793-99.944 45.793 16.804 159.642c.114 1.086 1.03 1.911 2.123 1.911h162.033c1.092 0 2.009-.825 2.123-1.911z" fill="#01c0fa"/><path d="m453.866 297.187-10.345 98.274c-3.691 35.063-33.258 61.68-68.514 61.68h-65.911l1.907 18.115c.114 1.086 1.03 1.911 2.123 1.911h162.033c1.092 0 2.008-.825 2.123-1.911l16.804-159.641z" fill="#08a9f1"/><path d="m448.04 304.104 46.046 11.511 10.392-98.727c.133-1.26-.855-2.358-2.123-2.358h-216.425c-1.267 0-2.255 1.098-2.123 2.358l10.392 98.727 46.046-11.511c35.388-8.847 72.408-8.847 107.795 0z" fill="#e94444"/><path d="m502.356 214.531h-39.789l-9.559 90.815 41.079 10.27 10.392-98.727c.133-1.26-.856-2.358-2.123-2.358z" fill="#d83131"/><path d="m192.821 276.734c5.07-4.475 8.156-11.146 7.767-18.525-.609-11.563-9.979-21.029-21.536-21.747-10.815-.671-20.149 6.124-23.338 15.724-1.437 4.324-5.441 7.269-9.997 7.269h-28.423c-4.556 0-8.56-2.945-9.997-7.269-3.189-9.6-12.523-16.395-23.338-15.724-11.557.717-20.927 10.184-21.536 21.747-.389 7.379 2.697 14.05 7.767 18.525-5.07 4.475-8.156 11.146-7.767 18.525.609 11.563 9.979 21.029 21.536 21.747 10.815.671 20.149-6.124 23.338-15.724 1.437-4.324 5.441-7.269 9.997-7.269h28.423c4.556 0 8.56 2.945 9.997 7.269 3.189 9.6 12.523 16.395 23.338 15.724 11.557-.717 20.927-10.184 21.536-21.747.388-7.379-2.697-14.05-7.767-18.525z" fill="#f2fbff"/><path d="m117.683 435.699v41.469h152.053v-41.469l-69.115-13.823z" fill="#0681af"/><path d="m117.683 408.053h152.053v27.646h-152.053z" fill="#d8e8f0"/><path d="m435.7 408.053-1.81-.603c-25.743-8.581-53.574-8.581-79.317 0l-1.81.603 2.35-4.701c7.222-14.445 7.222-31.447 0-45.891l-2.35-4.7 1.81.603c25.743 8.581 53.574 8.581 79.317 0l1.81-.603-2.35 4.7c-7.222 14.445-7.222 31.447 0 45.891z" fill="#c86d36"/><path d="m41.656 68.791c-4.147 0-7.51 3.362-7.51 7.51 0 4.147 3.362 7.51 7.51 7.51h13.823c4.147 0 7.51-3.362 7.51-7.51 0-4.147-3.362-7.51-7.51-7.51z"/><path d="m83.125 83.811h13.823c4.147 0 7.51-3.362 7.51-7.51 0-4.147-3.362-7.51-7.51-7.51h-13.823c-4.147 0-7.51 3.362-7.51 7.51 0 4.147 3.363 7.51 7.51 7.51z"/><path d="m138.417 83.811c4.147 0 7.51-3.362 7.51-7.51 0-4.147-3.362-7.51-7.51-7.51h-13.823c-4.147 0-7.51 3.362-7.51 7.51 0 4.147 3.362 7.51 7.51 7.51z"/><path d="m179.886 83.811c4.147 0 7.51-3.362 7.51-7.51 0-4.147-3.362-7.51-7.51-7.51h-13.823c-4.147 0-7.51 3.362-7.51 7.51 0 4.147 3.362 7.51 7.51 7.51z"/><path d="m221.355 83.811c4.147 0 7.51-3.362 7.51-7.51 0-4.147-3.362-7.51-7.51-7.51h-13.823c-4.147 0-7.51 3.362-7.51 7.51 0 4.147 3.362 7.51 7.51 7.51z"/><path d="m484.59 269.823c0-4.147-3.362-7.51-7.51-7.51h-165.875c-4.148 0-7.51 3.362-7.51 7.51s3.362 7.51 7.51 7.51h165.875c4.149 0 7.51-3.363 7.51-7.51z"/><path d="m511.947 217.677c.286-2.714-.597-5.435-2.423-7.463-1.826-2.029-4.438-3.193-7.169-3.193h-216.425c-2.73 0-5.343 1.164-7.169 3.193-1.827 2.029-2.709 4.749-2.423 7.461 6.041 57.39 21.174 201.156 27.197 258.369.518 4.922 4.642 8.634 9.592 8.634h162.032c4.95 0 9.073-3.712 9.592-8.635 3.462-32.894 24.516-232.906 27.196-258.366zm-41.627 251.982h-152.354l-15.615-148.34 39.716-9.929c23.113-5.779 46.871-7.666 70.609-5.609 4.128.362 7.773-2.701 8.13-6.834.358-4.132-2.701-7.772-6.833-8.13-25.399-2.2-50.818-.181-75.549 6.002l-37.661 9.415-5.952-56.547h30.217c4.148 0 7.51-3.362 7.51-7.51 0-4.147-3.362-7.51-7.51-7.51h-31.798l-1.329-12.627h204.484l-1.329 12.627h-31.798c-4.148 0-7.51 3.362-7.51 7.51s3.362 7.51 7.51 7.51h30.217l-5.952 56.547-37.661-9.415c-4.023-1.006-8.1 1.44-9.108 5.464-1.005 4.023 1.44 8.101 5.464 9.107l39.716 9.929z"/><path d="m277.246 415.539c3.868-.305 6.911-3.54 6.911-7.486 0-4.147-3.362-7.51-7.51-7.51h-16.284l-10.586-264.655c-.104-2.596.03-5.216.397-7.787 2.606-18.243 3.017-21.12 5.724-40.069.51-3.57-.395-7.175-2.493-10.066 2.825-2.188 4.7-5.39 5.211-8.965l3.027-21.192c.736-5.154-.798-10.366-4.21-14.299-3.411-3.933-8.354-6.189-13.56-6.189h-158.253c-4.147 0-7.51 3.362-7.51 7.51s3.362 7.51 7.51 7.51h158.256c1.164 0 1.886.633 2.214 1.01.327.377.852 1.183.687 2.335l-2.951 20.655c-3.152 2.172-5.263 5.551-5.826 9.354-.57 3.849.506 7.742 2.954 10.746l-1.428 9.994h-216.04l-1.428-9.994c2.449-3.006 3.523-6.897 2.954-10.746-.562-3.803-2.673-7.182-5.826-9.355l-2.951-20.656c-.165-1.151.359-1.957.687-2.334.327-.377 1.05-1.011 2.214-1.011h31.438c4.147 0 7.51-3.362 7.51-7.51s-3.362-7.51-7.51-7.51h-31.438c-5.206 0-10.149 2.256-13.561 6.189s-4.945 9.148-4.209 14.302l3.027 21.191c.511 3.576 2.387 6.778 5.211 8.965-2.098 2.892-3.002 6.497-2.493 10.065 2.673 18.715 3.167 22.172 5.724 40.071.367 2.569.501 5.188.397 7.785-.396 9.909-12.495 312.36-13.219 330.479-.193 4.833 1.546 9.415 4.897 12.903s7.86 5.408 12.696 5.408h259.039c4.148 0 7.51-3.362 7.51-7.51 0-3.946-3.043-7.181-6.911-7.486v-54.142zm-39.866-304.083-2.075 14.521c-.495 3.47-.676 7.006-.536 10.511l10.562 264.055h-25.648l1.101-2.202c2.745-5.49 2.457-11.885-.771-17.106-3.227-5.221-8.818-8.338-14.955-8.338h-22.7c-7.1 0-13.375 4.174-16.172 10.673-2.888-32.43-18.884-61.923-44.439-82.047h23.968c1.294 0 2.447.855 2.87 2.127 4.365 13.137 17.075 21.709 30.93 20.852 15.471-.96 27.753-13.362 28.569-28.847.36-6.836-1.531-13.437-5.302-18.92 3.771-5.482 5.662-12.084 5.302-18.92-.816-15.485-13.098-27.887-28.569-28.847-13.851-.871-26.566 7.715-30.931 20.851-.422 1.272-1.576 2.127-2.869 2.127h-28.424c-1.294 0-2.448-.855-2.87-2.127-4.365-13.136-17.08-21.715-30.93-20.851-15.472.96-27.754 13.362-28.569 28.847-.359 6.823 1.524 13.413 5.282 18.889-12.999-1.271-25.736-.372-37.665 2.312l5.701-142.527c.14-3.506-.041-7.042-.536-10.511l-2.074-14.521h211.75zm-52.853 289.087-4.459-8.919c-.556-1.111-.168-2.039.112-2.493.281-.454.937-1.215 2.18-1.215h22.7c1.242 0 1.898.761 2.179 1.215.28.454.668 1.381.112 2.493l-4.46 8.919zm-109.367-118.178c1.615-1.426 2.54-3.476 2.54-5.63 0-2.155-.926-4.205-2.54-5.63-3.58-3.16-5.489-7.716-5.237-12.5.407-7.733 6.777-14.166 14.501-14.646 7.065-.435 13.53 3.928 15.746 10.597 2.467 7.423 9.348 12.411 17.123 12.411h28.424c7.776 0 14.657-4.988 17.123-12.411 2.219-6.676 8.68-11.032 15.747-10.596 7.724.48 14.094 6.913 14.501 14.647.252 4.784-1.656 9.339-5.237 12.499-1.615 1.425-2.54 3.476-2.54 5.63s.925 4.205 2.54 5.63c3.58 3.16 5.489 7.716 5.237 12.5-.407 7.733-6.777 14.167-14.501 14.646-7.046.444-13.528-3.92-15.746-10.596-2.467-7.423-9.348-12.411-17.123-12.411h-28.424c-7.776 0-14.658 4.99-17.124 12.411-2.218 6.677-8.691 11.037-15.746 10.596-7.724-.479-14.094-6.912-14.501-14.646-.252-4.782 1.656-9.341 5.237-12.501zm-59.418 186.498c-.285-.297-.758-.938-.72-1.896l6.894-172.334c10.75-2.869 21.924-3.966 33.079-3.279-.122 1.417-.147 2.854-.071 4.3.816 15.486 13.098 27.887 28.569 28.848 10.626.659 20.76-4.251 26.846-12.802 28.061 20.972 43.204 54.168 41.111 88.843h-40.679c-4.147 0-7.51 3.362-7.51 7.51 0 3.946 3.044 7.181 6.911 7.486v54.119h-92.564c-.959 0-1.58-.498-1.866-.795zm109.45.796v-26.449h22.528c4.148 0 7.51-3.362 7.51-7.51s-3.362-7.51-7.51-7.51h-22.528v-12.627h137.034v12.627h-79.46c-4.148 0-7.51 3.362-7.51 7.51s3.362 7.51 7.51 7.51h79.46v26.449z"/><path d="m442.416 356.119c1.358-2.717.947-5.984-1.043-8.278-1.991-2.294-5.167-3.164-8.049-2.204l-1.81.603c-24.044 8.015-50.525 8.015-74.569 0l-1.811-.603c-2.878-.957-6.057-.089-8.048 2.206-1.989 2.294-2.401 5.562-1.042 8.278l2.351 4.7c6.132 12.265 6.132 26.909 0 39.174l-2.351 4.7c-1.358 2.716-.947 5.984 1.042 8.278 1.982 2.286 5.154 3.169 8.048 2.206l1.813-.604c24.041-8.014 50.522-8.015 74.567 0l1.81.603c2.883.96 6.059.09 8.049-2.204s2.402-5.561 1.043-8.278l-2.35-4.701c-6.132-12.265-6.132-26.909 0-39.175zm-19.705 40.485c-18.71-4.075-38.25-4.074-56.96 0 3.006-10.563 3.006-21.831 0-32.395 18.712 4.075 38.252 4.075 56.96 0-3.006 10.564-3.006 21.832 0 32.395z"/></g></svg>