<svg id="Capa_1" enable-background="new 0 0 512 512" height="512" viewBox="0 0 512 512" width="512" xmlns="http://www.w3.org/2000/svg"><g><g><g><path d="m480.317 150.037-28.348-60.547c-1.553-3.318-2.359-6.937-2.359-10.601v-54.943c0-9.083-7.363-16.446-16.446-16.446h-223.545c-9.083 0-16.446 7.363-16.446 16.446v54.944c0 3.664-.805 7.283-2.359 10.601l-28.348 60.547c-1.441 3.079-2.24 6.419-2.346 9.818l-5.84 186.33-4.076 120.046c-.485 15.467 11.922 28.269 27.397 28.269l107.303 10h180.282c15.475 0 27.882-12.802 27.397-28.269l-9.917-316.376c-.109-3.399-.907-6.74-2.349-9.819z" fill="#eef5f6"/><path d="m502.58 476.231-9.917-316.376c-.106-3.398-.905-6.739-2.346-9.818l-28.348-60.547c-1.553-3.318-2.359-6.937-2.359-10.601v-54.943c0-9.083-7.363-16.446-16.446-16.446h-28.131c9.083 0 16.446 7.363 16.446 16.446v54.944c0 3.664.805 7.283 2.359 10.601l26.48 60.547c1.441 3.079 2.24 6.42 2.346 9.818l9.917 316.376c.485 15.467-11.922 28.269-27.397 28.269h30c15.474-.001 27.881-12.803 27.396-28.27z" fill="#deecf1"/><path d="m372.218 322.213c-3.19-1.217-5.781-3.617-7.299-6.675-7.398-14.901-20.763-25.146-38.528-25.146-5.041 0-9.888-1.175-14.415.347-11.428 3.842-20.814 12.126-26.113 22.799-1.518 3.058-4.109 5.458-7.299 6.675-17.356 6.619-29.589 23.612-29.106 43.403.572 23.402 19.318 42.76 42.693 44.032 8.627.47 16.76-1.482 23.788-5.235 6.512-3.478 14.392-3.477 20.904 0 4.774 2.549 10.058 4.267 15.661 4.96 2.644.327 5.359-.575 8.124-.725 23.375-1.271 40.122-19.628 40.695-43.03.485-19.791-11.748-34.786-29.105-41.405z" fill="#ffe187"/><path d="m243.436 303.424c-9.706 2.601-19.682-3.159-22.283-12.865l-5.808-21.675c-2.601-9.706 3.159-19.682 12.865-22.283s19.682 3.159 22.283 12.865l5.808 21.675c2.601 9.706-3.159 19.682-12.865 22.283z" fill="#ffe187"/><path d="m409.346 303.424c9.706 2.601 19.682-3.159 22.283-12.865l5.808-21.675c2.601-9.706-3.159-19.682-12.865-22.283s-19.682 3.159-22.283 12.865l-5.808 21.675c-2.6 9.706 3.159 19.682 12.865 22.283z" fill="#ffc344"/><g><path d="m290.945 258.398c-10.048 0-18.194-8.145-18.194-18.194v-22.44c0-10.048 8.145-18.194 18.194-18.194s18.194 8.146 18.194 18.194v22.44c0 10.048-8.145 18.194-18.194 18.194z" fill="#ffe187"/></g><g><path d="m361.837 258.398c-10.048 0-18.194-8.145-18.194-18.194v-22.44c0-10.048 8.146-18.194 18.194-18.194s18.194 8.146 18.194 18.194v22.44c0 10.048-8.145 18.194-18.194 18.194z" fill="#ffc344"/></g><g><path d="m374.218 320.213c-3.19-1.216-5.781-3.617-7.299-6.675-7.398-14.901-22.763-25.146-40.528-25.146-5.041 0-9.887.827-14.415 2.349 15.36 1.893 28.333 11.483 34.943 24.797 1.518 3.058 4.109 5.458 7.299 6.675 17.357 6.619 29.59 23.614 29.105 43.405-.472 19.267-13.266 35.781-30.816 41.729 2.645.327 5.354.452 8.121.301 23.375-1.271 42.122-20.628 42.695-44.03.485-19.791-11.748-36.786-29.105-43.405z" fill="#ffc344"/></g><path d="m218.88 345.929c-5.166 0-10.129-1.136-14.755.453-4.626 1.59-8.915 3.905-12.731 6.809-7.389-5.199-16.39-8.262-26.112-8.262-4.432 0-8.712.646-12.762 1.83-10.665-9.272-24.583-14.897-39.824-14.897-32.704 0-59.36 25.848-60.681 58.228l123.842 9.559 78.464-10.279c-.002-25.097-10.346-43.441-35.441-43.441z" fill="#c68d7a"/><path d="m260.146 390.089h-220.98c-7.288 0-13.521 5.238-14.776 12.417l-14.756 84.411c-1.604 9.178 5.459 17.583 14.776 17.583h250.492c9.317 0 16.38-8.405 14.776-17.583l-14.756-84.411c-1.255-7.179-7.488-12.417-14.776-12.417z" fill="#6b95d6"/><path d="m122.341 422.103c-6.987 6.987-6.987 18.315 0 25.302l28.913 28.913c1.879 1.878 4.924 1.878 6.803 0l28.913-28.913c6.987-6.987 6.987-18.315 0-25.302-6.987-6.987-18.315-6.987-25.302 0l-7.013 7.013-7.013-7.013c-6.986-6.987-18.314-6.987-25.301 0z" fill="#ffe187"/><path d="m299.678 486.917-14.756-84.411c-1.255-7.179-7.488-12.417-14.776-12.417h-30c7.288 0 13.521 5.238 14.776 12.417l14.756 84.411c1.604 9.178-5.459 17.583-14.776 17.583h30c9.317 0 16.38-8.405 14.776-17.583z" fill="#2571b6"/><g><path d="m218.88 343.929c-5.26 0-10.307.899-15.005 2.545 17.725 6.196 30.445 23.056 30.445 42.895 0 .242-.014.48-.018.72h30c.004-.241.018-.479.018-.72-.001-25.096-20.345-45.44-45.44-45.44z" fill="#aa6a51"/></g></g></g><g><path d="m210.667 251.328c-3.432 5.943-4.343 12.868-2.566 19.497l5.808 21.675c1.776 6.629 6.027 12.17 11.972 15.602 3.959 2.286 8.352 3.453 12.805 3.453 2.232 0 4.479-.293 6.692-.886 6.629-1.776 12.17-6.028 15.602-11.971 3.432-5.944 4.343-12.868 2.566-19.498l-5.809-21.675c-1.776-6.629-6.027-12.17-11.971-15.602-5.942-3.432-12.865-4.343-19.497-2.567-6.63 1.776-12.171 6.028-15.602 11.972zm12.99 7.5c1.429-2.474 3.734-4.243 6.494-4.982.923-.247 1.851-.366 2.765-.366 4.721 0 9.053 3.155 10.332 7.928l5.809 21.675c.739 2.759.359 5.641-1.068 8.115-1.429 2.474-3.734 4.243-6.494 4.982-5.703 1.528-11.571-1.867-13.098-7.561l-5.808-21.675c-.74-2.761-.36-5.643 1.068-8.116z"/><path d="m426.512 239.356c-6.628-1.774-13.553-.865-19.497 2.567-5.943 3.431-10.194 8.972-11.971 15.601l-5.809 21.676c-1.776 6.629-.865 13.553 2.566 19.497 3.432 5.943 8.973 10.195 15.602 11.971 2.214.593 4.46.886 6.692.886 4.452 0 8.847-1.167 12.805-3.453 5.944-3.432 10.195-8.973 11.972-15.602l5.808-21.675c1.776-6.629.865-13.553-2.566-19.497-3.432-5.943-8.973-10.195-15.602-11.971zm3.68 27.586-5.808 21.675c-1.526 5.695-7.403 9.09-13.098 7.561-2.76-.739-5.065-2.509-6.494-4.982-1.428-2.474-1.808-5.355-1.068-8.114l5.809-21.676c1.279-4.772 5.61-7.927 10.332-7.927.913 0 1.842.118 2.765.366 2.76.739 5.065 2.509 6.494 4.982 1.427 2.474 1.807 5.356 1.068 8.115z"/><path d="m265.251 217.764v22.44c0 14.167 11.526 25.694 25.693 25.694 14.168 0 25.694-11.526 25.694-25.694v-22.44c0-14.168-11.526-25.694-25.694-25.694-14.167 0-25.693 11.527-25.693 25.694zm36.387 0v22.44c0 5.896-4.798 10.694-10.694 10.694s-10.693-4.797-10.693-10.694v-22.44c0-5.896 4.797-10.694 10.693-10.694 5.897 0 10.694 4.798 10.694 10.694z"/><path d="m336.142 217.764v22.44c0 14.167 11.526 25.694 25.694 25.694 14.167 0 25.693-11.526 25.693-25.694v-22.44c0-14.168-11.526-25.694-25.693-25.694s-25.694 11.527-25.694 25.694zm36.388 0v22.44c0 5.896-4.797 10.694-10.693 10.694-5.897 0-10.694-4.797-10.694-10.694v-22.44c0-5.896 4.798-10.694 10.694-10.694s10.693 4.798 10.693 10.694z"/><path d="m156.364 416.799-1.709 1.71-1.71-1.71c-4.796-4.795-11.172-7.436-17.954-7.436s-13.158 2.641-17.954 7.437-7.437 11.172-7.437 17.955c0 6.782 2.641 13.158 7.437 17.954l28.914 28.914c2.4 2.399 5.552 3.599 8.704 3.598 3.152 0 6.305-1.2 8.705-3.599l28.913-28.913c4.796-4.796 7.437-11.172 7.437-17.954s-2.641-13.159-7.438-17.955c-9.898-9.9-26.008-9.899-35.908-.001zm25.302 25.303-27.011 27.011-27.011-27.011c-4.052-4.052-4.052-10.644 0-14.696 1.962-1.962 4.571-3.043 7.347-3.043s5.386 1.081 7.348 3.043l7.013 7.013c2.93 2.929 7.678 2.929 10.607 0l7.012-7.012c4.052-4.05 10.643-4.052 14.695 0 4.051 4.05 4.051 10.643 0 14.695z"/><path d="m390.356 462.495c0 4.142 3.357 7.5 7.5 7.5h48.105c4.143 0 7.5-3.358 7.5-7.5s-3.357-7.5-7.5-7.5h-48.105c-4.142 0-7.5 3.358-7.5 7.5z"/><path d="m475.182 512c9.532 0 18.435-3.77 25.069-10.615s10.122-15.862 9.823-25.389l-9.916-316.376c-.139-4.442-1.165-8.736-3.051-12.763l-28.348-60.547c-1.08-2.306-1.65-4.872-1.65-7.42v-54.944c0-13.204-10.742-23.946-23.946-23.946h-233.545c-13.204 0-23.946 10.742-23.946 23.946v54.944c0 2.548-.57 5.114-1.65 7.42l-28.35 60.547c-1.885 4.026-2.911 8.32-3.05 12.762l-1.793 57.22c-.13 4.14 3.121 7.602 7.261 7.731.081.003.16.004.239.004 4.034 0 7.365-3.205 7.492-7.265l1.793-57.22c.075-2.392.628-4.704 1.643-6.872l28.349-60.546c2.006-4.284 3.066-9.049 3.066-13.781v-54.944c0-4.933 4.014-8.946 8.946-8.946h233.545c4.933 0 8.946 4.013 8.946 8.946v54.944c0 4.732 1.061 9.498 3.066 13.781l28.348 60.546c1.016 2.169 1.568 4.481 1.644 6.873l9.916 316.377c.17 5.434-1.819 10.576-5.603 14.479-3.783 3.904-8.861 6.054-14.298 6.054h-169.072c1.275-3.603 1.63-7.509.954-11.375l-12.31-70.418c8.64-.017 17.129-2.131 24.718-6.183 4.333-2.314 9.506-2.313 13.837 0 8.467 4.522 18.053 6.636 27.725 6.107 27.248-1.481 49.115-24.029 49.783-51.332.547-22.314-13.088-42.647-33.93-50.595-1.402-.535-2.558-1.601-3.253-3.002-8.975-18.079-27.078-29.309-47.244-29.309s-38.269 11.23-47.245 29.31c-.694 1.4-1.85 2.466-3.253 3.001-14.169 5.404-25.153 16.581-30.454 30.399-7.813-4.552-16.883-7.174-26.559-7.174-9.891 0-19.353 2.68-27.656 7.793-7.898-4.458-16.768-6.793-25.942-6.793-1.078 0-2.153.043-3.227.109l2.744-87.542c.13-4.14-3.121-7.602-7.261-7.731-.08-.003-.16-.004-.239-.004-4.034 0-7.365 3.205-7.492 7.265l-2.639 84.199c-10.393-6.091-22.28-9.363-34.471-9.363-2.066 0-4.156.094-6.21.279-4.126.373-7.168 4.019-6.796 8.144s4.031 7.164 8.143 6.795c1.608-.145 3.244-.219 4.862-.219 12.823 0 25.219 4.637 34.903 13.058 1.927 1.674 4.573 2.255 7.023 1.539 3.474-1.015 7.06-1.529 10.659-1.529 7.849 0 15.385 2.385 21.796 6.896 2.675 1.882 6.257 1.815 8.858-.165 6.646-5.058 14.58-7.731 22.944-7.731 18.606 0 34.116 13.467 37.322 31.16h-195.78c2.462-12.967 9.647-24.589 20.428-32.655 3.317-2.481 3.994-7.181 1.514-10.498-2.481-3.317-7.181-3.994-10.498-1.513-14.59 10.914-24.055 26.914-26.662 44.666h-6.038c-10.956 0-20.276 7.833-22.163 18.625l-14.755 84.411c-1.148 6.562.652 13.25 4.938 18.35 4.285 5.1 10.564 8.024 17.225 8.024h450.773zm-193.945-184.78c4.939-1.883 8.968-5.558 11.345-10.348 6.425-12.94 19.379-20.979 33.809-20.979s27.384 8.039 33.809 20.98c2.379 4.79 6.408 8.465 11.344 10.347 14.914 5.687 24.67 20.24 24.278 36.212-.478 19.533-16.115 35.663-35.602 36.722-6.931.376-13.795-1.131-19.845-4.361-8.756-4.677-19.213-4.677-27.969 0-6.049 3.23-12.915 4.737-19.846 4.361-.164-.009-.325-.004-.487-.003-2.208-9.834-10.645-16.963-20.697-17.507-1.409-11.06-6.23-21.069-13.391-28.919 2.863-12.044 11.53-22.034 23.252-26.505zm-262.569 167.105c-1.449-1.725-2.034-3.897-1.646-6.117l14.756-84.411c.629-3.598 3.736-6.209 7.388-6.209h230.98c3.651 0 6.759 2.611 7.388 6.209l14.756 84.411c.388 2.219-.197 4.392-1.646 6.117s-3.488 2.675-5.741 2.675h-260.494c-2.253 0-4.292-.95-5.741-2.675z"/><path d="m423.985 41.674h-45.806c-4.143 0-7.5 3.358-7.5 7.5s3.357 7.5 7.5 7.5h45.806c4.143 0 7.5-3.358 7.5-7.5s-3.357-7.5-7.5-7.5z"/><path d="m345.493 41.674h-116.697c-4.143 0-7.5 3.358-7.5 7.5s3.357 7.5 7.5 7.5h116.697c4.143 0 7.5-3.358 7.5-7.5s-3.358-7.5-7.5-7.5z"/></g></g></svg>