<?xml version="1.0"?>
<svg xmlns="http://www.w3.org/2000/svg" data-name="Layer 1" id="Layer_1" viewBox="0 0 64 64"><title/><path d="M49.92,64H14.08a1,1,0,0,1-1-1V33.36a19,19,0,0,1,37.9,0V63A1,1,0,0,1,49.92,64ZM32,15.4a18,18,0,0,0-18,18V63L49.92,63s0,0,0-.05V33.36A18,18,0,0,0,32,15.4Z"/><path d="M26.27,16.31a.49.49,0,0,1-.49-.49V8.89a.49.49,0,0,1,1,0v6.93A.49.49,0,0,1,26.27,16.31Z"/><path d="M37.73,16.31a.49.49,0,0,1-.49-.49V8.89a.5.5,0,0,1,1,0v6.93A.49.49,0,0,1,37.73,16.31Z"/><path d="M40.09,9.38H23.91a2.46,2.46,0,0,1-2.46-2.46V2.46A2.46,2.46,0,0,1,23.91,0H40.09a2.46,2.46,0,0,1,2.46,2.46V6.92A2.46,2.46,0,0,1,40.09,9.38ZM23.91,1a1.48,1.48,0,0,0-1.47,1.48V6.92A1.47,1.47,0,0,0,23.91,8.4H40.09a1.48,1.48,0,0,0,1.48-1.48V2.46A1.49,1.49,0,0,0,40.09,1Z"/><path d="M25.7,9.38a.49.49,0,0,1-.49-.49V.49a.49.49,0,0,1,1,0v8.4A.49.49,0,0,1,25.7,9.38Z"/><path d="M29.9,9.38a.49.49,0,0,1-.49-.49V.49a.49.49,0,0,1,1,0v8.4A.49.49,0,0,1,29.9,9.38Z"/><path d="M34.1,9.38a.49.49,0,0,1-.49-.49V.49a.49.49,0,1,1,1,0v8.4A.49.49,0,0,1,34.1,9.38Z"/><path d="M38.3,9.38a.49.49,0,0,1-.49-.49V.49a.49.49,0,0,1,1,0v8.4A.49.49,0,0,1,38.3,9.38Z"/><path d="M50.23,31H13.77a.5.5,0,0,1,0-1H50.23a.5.5,0,0,1,0,1Z"/><path d="M50.45,54.28H13.55a.5.5,0,1,1,0-1h36.9a.5.5,0,1,1,0,1Z"/><path d="M25.2,44.19a2,2,0,0,1-.89-.22,3.43,3.43,0,0,1-1.8-3.11,1.73,1.73,0,0,1,.82-1.45c.94-.55,2.26,0,3,1.32h0a3.28,3.28,0,0,1,.46,1.81A1.79,1.79,0,0,1,26,44,1.55,1.55,0,0,1,25.2,44.19Zm-1.1-4a.51.51,0,0,0-.28.07.81.81,0,0,0-.33.66,2.46,2.46,0,0,0,1.25,2.17.85.85,0,0,0,.74,0,.83.83,0,0,0,.32-.67,2.29,2.29,0,0,0-.32-1.25h0A1.83,1.83,0,0,0,24.1,40.19Z"/><path d="M29.17,39.94c-1.24,0-2.32-1.29-2.5-3a4,4,0,0,1,.41-2.3,2,2,0,0,1,3.45-.34,4.05,4.05,0,0,1,.85,2.17c.18,1.83-.71,3.36-2,3.49Zm-.29-5.55H28.8a1.18,1.18,0,0,0-.85.69,3.11,3.11,0,0,0-.3,1.73C27.78,38,28.5,39,29.25,39s1.27-1.18,1.15-2.41a3,3,0,0,0-.63-1.64A1.23,1.23,0,0,0,28.88,34.39Z"/><path d="M35,40c-1.34,0-2.38-1.45-2.38-3.3s1-3.3,2.38-3.3,2.38,1.45,2.38,3.3S36.29,40,35,40Zm0-5.61c-.76,0-1.4,1.06-1.4,2.31S34.2,39,35,39s1.39-1.06,1.39-2.32S35.71,34.36,35,34.36Z"/><path d="M38.92,44.43a1.56,1.56,0,0,1-.67-.15,1.85,1.85,0,0,1-1-1.51,3.67,3.67,0,0,1,.36-2c.71-1.5,2.09-2.29,3.14-1.79a1.85,1.85,0,0,1,1,1.51,3.77,3.77,0,0,1-.37,2h0A3,3,0,0,1,38.92,44.43Zm1.18-4.65a2.12,2.12,0,0,0-1.58,1.37,2.81,2.81,0,0,0-.27,1.49.92.92,0,0,0,.42.75c.47.22,1.33-.27,1.82-1.32h0a2.74,2.74,0,0,0,.28-1.49,1,1,0,0,0-.42-.75A.53.53,0,0,0,40.1,39.78Z"/><path d="M34.44,50.9a4.43,4.43,0,0,1-1.34-.2,7.38,7.38,0,0,0-3.72,0,3.9,3.9,0,0,1-1,.07,3.4,3.4,0,0,1-2.68-1.1,2.22,2.22,0,0,1-.23-2,3.72,3.72,0,0,1,1.49-2.08,20.72,20.72,0,0,0,3.23-3.18,2.47,2.47,0,0,1,2.15-.85A3.53,3.53,0,0,1,35,43.28l1.63,2.36c1.32,1.63,1.77,2.87,1.37,3.79s-1.39,1.33-3.13,1.45Zm-3-1.42a6.47,6.47,0,0,1,1.93.28,3.75,3.75,0,0,0,1.36.14c1.3-.09,2.1-.39,2.3-.86s-.21-1.52-1.24-2.79l0,0-1.65-2.39a2.57,2.57,0,0,0-1.94-1.24,1.47,1.47,0,0,0-1.29.51,21.77,21.77,0,0,1-3.42,3.35A2.84,2.84,0,0,0,26.37,48a1.29,1.29,0,0,0,.09,1.12,2.54,2.54,0,0,0,1.94.7,3.3,3.3,0,0,0,.78,0A10.83,10.83,0,0,1,31.46,49.48Z"/><path d="M49.92,64H14.08a1,1,0,0,1-1-1V33.36a19,19,0,0,1,37.9,0V63A1,1,0,0,1,49.92,64ZM32,15.4a18,18,0,0,0-18,18V63L49.92,63s0,0,0-.05V33.36A18,18,0,0,0,32,15.4Z"/><path d="M26.27,16.31a.49.49,0,0,1-.49-.49V8.89a.49.49,0,0,1,1,0v6.93A.49.49,0,0,1,26.27,16.31Z"/><path d="M37.73,16.31a.49.49,0,0,1-.49-.49V8.89a.5.5,0,0,1,1,0v6.93A.49.49,0,0,1,37.73,16.31Z"/><path d="M40.09,9.38H23.91a2.46,2.46,0,0,1-2.46-2.46V2.46A2.46,2.46,0,0,1,23.91,0H40.09a2.46,2.46,0,0,1,2.46,2.46V6.92A2.46,2.46,0,0,1,40.09,9.38ZM23.91,1a1.48,1.48,0,0,0-1.47,1.48V6.92A1.47,1.47,0,0,0,23.91,8.4H40.09a1.48,1.48,0,0,0,1.48-1.48V2.46A1.49,1.49,0,0,0,40.09,1Z"/><path d="M25.7,9.38a.49.49,0,0,1-.49-.49V.49a.49.49,0,0,1,1,0v8.4A.49.49,0,0,1,25.7,9.38Z"/><path d="M29.9,9.38a.49.49,0,0,1-.49-.49V.49a.49.49,0,0,1,1,0v8.4A.49.49,0,0,1,29.9,9.38Z"/><path d="M34.1,9.38a.49.49,0,0,1-.49-.49V.49a.49.49,0,1,1,1,0v8.4A.49.49,0,0,1,34.1,9.38Z"/><path d="M38.3,9.38a.49.49,0,0,1-.49-.49V.49a.49.49,0,0,1,1,0v8.4A.49.49,0,0,1,38.3,9.38Z"/><path d="M50.23,31H13.77a.5.5,0,0,1,0-1H50.23a.5.5,0,0,1,0,1Z"/><path d="M50.45,54.28H13.55a.5.5,0,1,1,0-1h36.9a.5.5,0,1,1,0,1Z"/><path d="M25.2,44.19a2,2,0,0,1-.89-.22,3.43,3.43,0,0,1-1.8-3.11,1.73,1.73,0,0,1,.82-1.45c.94-.55,2.26,0,3,1.32h0a3.28,3.28,0,0,1,.46,1.81A1.79,1.79,0,0,1,26,44,1.55,1.55,0,0,1,25.2,44.19Zm-1.1-4a.51.51,0,0,0-.28.07.81.81,0,0,0-.33.66,2.46,2.46,0,0,0,1.25,2.17.85.85,0,0,0,.74,0,.83.83,0,0,0,.32-.67,2.29,2.29,0,0,0-.32-1.25h0A1.83,1.83,0,0,0,24.1,40.19Z"/><path d="M29.17,39.94c-1.24,0-2.32-1.29-2.5-3a4,4,0,0,1,.41-2.3,2,2,0,0,1,3.45-.34,4.05,4.05,0,0,1,.85,2.17c.18,1.83-.71,3.36-2,3.49Zm-.29-5.55H28.8a1.18,1.18,0,0,0-.85.69,3.11,3.11,0,0,0-.3,1.73C27.78,38,28.5,39,29.25,39s1.27-1.18,1.15-2.41a3,3,0,0,0-.63-1.64A1.23,1.23,0,0,0,28.88,34.39Z"/><path d="M35,40c-1.34,0-2.38-1.45-2.38-3.3s1-3.3,2.38-3.3,2.38,1.45,2.38,3.3S36.29,40,35,40Zm0-5.61c-.76,0-1.4,1.06-1.4,2.31S34.2,39,35,39s1.39-1.06,1.39-2.32S35.71,34.36,35,34.36Z"/><path d="M38.92,44.43a1.56,1.56,0,0,1-.67-.15,1.85,1.85,0,0,1-1-1.51,3.67,3.67,0,0,1,.36-2c.71-1.5,2.09-2.29,3.14-1.79a1.85,1.85,0,0,1,1,1.51,3.77,3.77,0,0,1-.37,2h0A3,3,0,0,1,38.92,44.43Zm1.18-4.65a2.12,2.12,0,0,0-1.58,1.37,2.81,2.81,0,0,0-.27,1.49.92.92,0,0,0,.42.75c.47.22,1.33-.27,1.82-1.32h0a2.74,2.74,0,0,0,.28-1.49,1,1,0,0,0-.42-.75A.53.53,0,0,0,40.1,39.78Z"/><path d="M34.44,50.9a4.43,4.43,0,0,1-1.34-.2,7.38,7.38,0,0,0-3.72,0,3.9,3.9,0,0,1-1,.07,3.4,3.4,0,0,1-2.68-1.1,2.22,2.22,0,0,1-.23-2,3.72,3.72,0,0,1,1.49-2.08,20.72,20.72,0,0,0,3.23-3.18,2.47,2.47,0,0,1,2.15-.85A3.53,3.53,0,0,1,35,43.28l1.63,2.36c1.32,1.63,1.77,2.87,1.37,3.79s-1.39,1.33-3.13,1.45Zm-3-1.42a6.47,6.47,0,0,1,1.93.28,3.75,3.75,0,0,0,1.36.14c1.3-.09,2.1-.39,2.3-.86s-.21-1.52-1.24-2.79l0,0-1.65-2.39a2.57,2.57,0,0,0-1.94-1.24,1.47,1.47,0,0,0-1.29.51,21.77,21.77,0,0,1-3.42,3.35A2.84,2.84,0,0,0,26.37,48a1.29,1.29,0,0,0,.09,1.12,2.54,2.54,0,0,0,1.94.7,3.3,3.3,0,0,0,.78,0A10.83,10.83,0,0,1,31.46,49.48Z"/></svg>
