<svg id="Layer_1" enable-background="new 0 0 256 256" viewBox="0 0 256 256" xmlns="http://www.w3.org/2000/svg"><g><g><g><path d="m244 248h-80c-2.209 0-4-1.791-4-4v-13c0-2.209 1.791-4 4-4h80c2.209 0 4 1.791 4 4v13c0 2.209-1.791 4-4 4z" fill="#f9a7a7"/></g></g><g><g><path d="m244 228h-80c-2.209 0-4-1.791-4-4v-13c0-2.209 1.791-4 4-4h80c2.209 0 4 1.791 4 4v13c0 2.209-1.791 4-4 4z" fill="#f9a7a7"/></g></g><g><g><circle cx="204" cy="142" fill="#f9a7a7" r="44"/></g></g><g><g><path d="m160.561 135c-.365 2.28-.561 4.617-.561 7s.196 4.72.561 7h86.879c.365-2.28.561-4.617.561-7s-.196-4.72-.561-7z" fill="#f9cfcf"/></g></g><g><g><path d="m124.769 81.67-11.962-17.088c-1.177-1.681-1.808-3.683-1.808-5.735v-12.847h-81.999v12.848c0 2.052-.631 4.054-1.808 5.735l-11.961 17.087c-4.707 6.724-7.231 14.732-7.231 22.939v131.305c0 6.627 5.373 12 12 12h100c6.627 0 12-5.373 12-12v-131.305c0-8.207-2.524-16.215-7.231-22.939z" fill="#6bdddd"/></g></g><g><g><path d="m112.92 46h-85.84c-4.463 0-8.08-3.617-8.08-8.08v-21.84c0-4.463 3.617-8.08 8.08-8.08h85.841c4.462 0 8.08 3.617 8.08 8.08v21.84c-.001 4.463-3.618 8.08-8.081 8.08z" fill="#4671c6"/></g></g><g><g><path d="m112.92 48h-85.84c-5.559 0-10.08-4.521-10.08-10.08v-21.84c0-5.559 4.521-10.08 10.08-10.08h85.84c5.559 0 10.08 4.521 10.08 10.08v21.84c0 5.559-4.521 10.08-10.08 10.08zm-85.84-38c-3.352 0-6.08 2.727-6.08 6.08v21.84c0 3.353 2.728 6.08 6.08 6.08h85.84c3.353 0 6.08-2.727 6.08-6.08v-21.84c0-3.353-2.728-6.08-6.08-6.08z" fill="#3762cc"/></g></g><g><g><path d="m120 249.914h-100c-7.72 0-14-6.28-14-14v-131.305c0-8.661 2.625-16.99 7.592-24.085l11.962-17.088c.946-1.352 1.446-2.938 1.446-4.588v-12.848c0-1.104.896-2 2-2h82c1.104 0 2 .896 2 2v12.848c0 1.65.5 3.236 1.446 4.588l11.962 17.088c4.967 7.096 7.592 15.424 7.592 24.085v131.305c0 7.72-6.28 14-14 14zm-89-201.914v10.848c0 2.475-.75 4.854-2.169 6.882l-11.962 17.087c-4.494 6.42-6.869 13.955-6.869 21.792v131.305c0 5.514 4.486 10 10 10h100c5.514 0 10-4.486 10-10v-131.305c0-7.836-2.375-15.372-6.869-21.792l-11.962-17.088c-1.419-2.027-2.169-4.407-2.169-6.881v-10.848z" fill="#3762cc"/></g></g><g><g><path d="m30 38c-2.209 0-4-1.791-4-4v-16c0-2.209 1.791-4 4-4 2.209 0 4 1.791 4 4v16c0 2.209-1.791 4-4 4z" fill="#a4c9ff"/></g></g><g><g><path d="m50 38c-2.209 0-4-1.791-4-4v-16c0-2.209 1.791-4 4-4 2.209 0 4 1.791 4 4v16c0 2.209-1.791 4-4 4z" fill="#a4c9ff"/></g></g><g><g><path d="m70 38c-2.209 0-4-1.791-4-4v-16c0-2.209 1.791-4 4-4 2.209 0 4 1.791 4 4v16c0 2.209-1.791 4-4 4z" fill="#a4c9ff"/></g></g><g><g><path d="m90 38c-2.209 0-4-1.791-4-4v-16c0-2.209 1.791-4 4-4 2.209 0 4 1.791 4 4v16c0 2.209-1.791 4-4 4z" fill="#a4c9ff"/></g></g><g><g><path d="m110 38c-2.209 0-4-1.791-4-4v-16c0-2.209 1.791-4 4-4 2.209 0 4 1.791 4 4v16c0 2.209-1.791 4-4 4z" fill="#a4c9ff"/></g></g><g><g><circle cx="70" cy="151" fill="#f9a7a7" r="40"/></g></g><g><g><g><path d="m132 121h-35.557c8.309 7.33 13.557 18.049 13.557 30s-5.248 22.67-13.557 30h35.557z" fill="#4671c6"/></g></g><g><g><path d="m30 151c0-11.951 5.248-22.67 13.557-30h-35.557v60h35.557c-8.309-7.33-13.557-18.049-13.557-30z" fill="#4671c6"/></g></g></g><g><g><path d="m47.661 153.753c-3.866 0-7-3.134-7-7v-4c0-3.866 3.134-7 7-7 3.866 0 7 3.134 7 7v4c0 3.866-3.134 7-7 7z" fill="#4671c6"/></g></g><g><g><path d="m92.339 153.753c3.866 0 7-3.134 7-7v-4c0-3.866-3.134-7-7-7-3.866 0-7 3.134-7 7v4c0 3.866 3.134 7 7 7z" fill="#4671c6"/></g></g><g><g><path d="m61.058 140.867c-3.866 0-7-3.134-7-7v-4c0-3.866 3.134-7 7-7 3.866 0 7 3.134 7 7v4c0 3.866-3.134 7-7 7z" fill="#4671c6"/></g></g><g><g><path d="m78.564 140.867c3.866 0 7-3.134 7-7v-4c0-3.866-3.134-7-7-7-3.866 0-7 3.134-7 7v4c0 3.866 3.134 7 7 7z" fill="#4671c6"/></g></g><g><g><path d="m83.753 154.653c-.62-.155-1.05-.68-1.05-1.28 0-6.558-5.687-11.873-12.702-11.873-7.015 0-12.702 5.316-12.702 11.873 0 .6-.43 1.125-1.05 1.28-5.355 1.338-9.3 5.901-9.3 11.328v.29c0 6.477 5.618 11.728 12.547 11.728h10.504 10.505c6.93 0 12.547-5.251 12.547-11.728v-.29c.001-5.427-3.944-9.99-9.299-11.328z" fill="#4671c6"/></g></g><g><g><path d="m204 188c-25.364 0-46-20.636-46-46s20.636-46 46-46 46 20.636 46 46-20.636 46-46 46zm0-88c-23.159 0-42 18.841-42 42s18.841 42 42 42 42-18.841 42-42-18.841-42-42-42z" fill="#3762cc"/></g></g><g><g><path d="m244 250h-80c-3.309 0-6-2.691-6-6v-13c0-3.309 2.691-6 6-6h80c3.309 0 6 2.691 6 6v13c0 3.309-2.691 6-6 6zm-80-21c-1.103 0-2 .897-2 2v13c0 1.103.897 2 2 2h80c1.103 0 2-.897 2-2v-13c0-1.103-.897-2-2-2z" fill="#3762cc"/></g></g><g><g><path d="m244 230h-80c-3.309 0-6-2.691-6-6v-13c0-3.309 2.691-6 6-6h80c3.309 0 6 2.691 6 6v13c0 3.309-2.691 6-6 6zm-80-21c-1.103 0-2 .897-2 2v13c0 1.103.897 2 2 2h80c1.103 0 2-.897 2-2v-13c0-1.103-.897-2-2-2z" fill="#3762cc"/></g></g><g><g><g><path d="m68.119 173.375-5.942-15.764c-.233-.618.224-1.278.884-1.278h2.767c.4 0 .756.251.89.628l2.896 8.126c.298.836 1.48.837 1.78.001l2.911-8.129c.135-.376.491-.626.89-.626h2.722c.66 0 1.117.659.885 1.277l-5.92 15.764c-.138.369-.491.613-.885.613h-2.994c-.393-.001-.746-.244-.884-.612z" fill="#ffea92"/></g></g></g></g></svg>